<svg version="1.1" id="Layer_1" xmlns="http://www.w3.org/2000/svg" xmlns:xlink="http://www.w3.org/1999/xlink" x="0px" y="0px"
	 width="100%" viewBox="0 0 3509 2481" enable-background="new 0 0 3509 2481" xml:space="preserve">
<path fill="#FFFFFF" opacity="1.000000" stroke="none" 
	d="
M2276.000000,2484.000000 
	C1517.333496,2484.000000 759.666931,2484.000000 2.000305,2484.000000 
	C2.000203,1656.666992 2.000203,829.333923 2.000102,2.000638 
	C1171.999512,2.000425 2341.999023,2.000425 3511.999023,2.000213 
	C3511.999268,829.332703 3511.999268,1656.665405 3511.999512,2483.999023 
	C3100.333252,2484.000000 2688.666748,2484.000000 2276.000000,2484.000000 
M1914.085815,1925.102783 
	C1906.776611,1933.135132 1897.304443,1935.409790 1886.927002,1935.402466 
	C1852.927124,1935.378784 1818.899780,1936.215820 1784.938232,1935.074585 
	C1765.688232,1934.427612 1750.083130,1950.302002 1749.510620,1966.774414 
	C1749.085938,1978.989380 1746.972778,1991.152954 1745.471069,2003.322021 
	C1740.921875,2040.184448 1736.334839,2077.042480 1731.702026,2113.894287 
	C1728.683228,2137.907227 1725.460449,2161.895020 1722.510498,2185.916260 
	C1719.557983,2209.956299 1716.662598,2234.006348 1714.072266,2258.087158 
	C1712.646851,2271.337402 1719.018555,2279.388184 1731.717041,2281.184814 
	C1734.663086,2281.601562 1737.702881,2281.404053 1740.699585,2281.404297 
	C1879.365601,2281.412598 2018.031494,2281.411621 2156.697510,2281.410889 
	C2159.030762,2281.410889 2161.372070,2281.528076 2163.696289,2281.381348 
	C2188.518555,2279.815430 2205.886475,2258.845947 2200.932129,2236.083984 
	C2194.383789,2205.998047 2192.274902,2175.730957 2195.616943,2145.053467 
	C2198.040527,2122.809082 2202.002686,2100.811768 2210.745117,2080.271973 
	C2221.940918,2053.968018 2234.484619,2028.222046 2246.940918,2002.474487 
	C2262.452393,1970.412354 2278.527100,1938.623413 2294.251221,1906.663574 
	C2320.107910,1854.108154 2345.828125,1801.485352 2371.729004,1748.952026 
	C2376.799072,1738.669189 2385.100342,1737.088379 2393.367676,1744.624268 
	C2406.008545,1756.147339 2414.447510,1770.237305 2418.150879,1787.005249 
	C2423.856445,1812.841187 2418.417480,1837.221680 2407.706543,1860.660278 
	C2400.242188,1876.995361 2391.981201,1892.966675 2384.064209,1909.094604 
	C2366.174805,1945.538208 2348.265137,1981.971802 2330.416992,2018.435547 
	C2329.370850,2020.572632 2328.798096,2022.941406 2327.705322,2026.056885 
	C2340.145752,2024.429565 2351.279541,2022.601196 2362.487793,2021.647339 
	C2369.149414,2021.080444 2373.128174,2018.601196 2376.106445,2012.358521 
	C2390.868164,1981.418823 2406.058350,1950.682983 2421.175293,1919.913574 
	C2443.630127,1874.209717 2466.132080,1828.529053 2488.647705,1782.855103 
	C2512.780518,1733.900146 2536.962402,1684.969360 2561.104004,1636.018677 
	C2584.071045,1589.450928 2607.001953,1542.865112 2629.986572,1496.306030 
	C2632.193359,1491.835571 2634.315674,1487.260254 2637.085938,1483.142944 
	C2645.514404,1470.616089 2657.770752,1463.621216 2672.562012,1464.674194 
	C2688.889893,1465.837036 2701.132812,1474.726685 2707.598633,1490.429077 
	C2713.016846,1503.587158 2709.760986,1515.745361 2703.788574,1527.811768 
	C2685.924805,1563.904175 2668.230713,1600.080322 2650.479980,1636.228638 
	C2632.582764,1672.676147 2614.729980,1709.145386 2596.798340,1745.575928 
	C2573.425781,1793.060425 2549.985107,1840.511475 2526.612061,1887.995605 
	C2525.070068,1891.128052 2523.851807,1894.419922 2522.317627,1898.026245 
	C2535.619629,1901.796631 2547.933594,1905.286865 2560.601318,1908.877441 
	C2562.069092,1905.928833 2563.252930,1903.591187 2564.402344,1901.236450 
	C2576.224854,1877.011230 2588.016846,1852.771118 2599.865479,1828.558594 
	C2631.166504,1764.594360 2662.463867,1700.628174 2693.817139,1636.689453 
	C2715.210693,1593.061157 2736.677979,1549.468994 2758.159912,1505.884033 
	C2761.241455,1499.631958 2763.903564,1493.017700 2767.932861,1487.415161 
	C2786.366943,1461.785400 2822.609131,1466.294434 2836.023682,1493.367432 
	C2842.305176,1506.044434 2840.831787,1518.433228 2834.720215,1530.749023 
	C2827.473389,1545.352783 2820.468018,1560.076172 2813.297119,1574.717896 
	C2780.800293,1641.066650 2748.308350,1707.417725 2715.761719,1773.742065 
	C2695.234619,1815.572876 2674.600586,1857.351440 2654.043213,1899.167480 
	C2646.557129,1914.395020 2639.364502,1929.772095 2631.591553,1944.850708 
	C2629.082520,1949.717896 2629.993164,1952.678711 2633.806152,1956.054199 
	C2640.281006,1961.785889 2646.382568,1967.937378 2652.699219,1973.850342 
	C2654.539307,1975.572876 2656.577148,1977.084595 2658.836914,1978.951172 
	C2660.669189,1975.579468 2662.187256,1973.004272 2663.504395,1970.330078 
	C2684.975342,1926.743652 2706.406738,1883.137939 2727.875244,1839.550293 
	C2751.553711,1791.476318 2775.244141,1743.408569 2798.959717,1695.353027 
	C2815.309326,1662.223389 2831.702637,1629.115356 2848.092529,1596.005859 
	C2854.077148,1583.916504 2857.617188,1571.141357 2857.624512,1557.662476 
	C2857.707520,1404.663208 2857.746826,1251.663940 2857.624023,1098.664673 
	C2857.596436,1064.275146 2829.127441,1038.927246 2798.505371,1040.144409 
	C2785.562256,1040.658813 2772.622070,1042.119629 2759.694580,1041.964844 
	C2737.075195,1041.693970 2714.595459,1039.359619 2692.553467,1033.952271 
	C2648.201416,1023.071838 2608.004639,1003.820984 2574.013428,973.008362 
	C2552.076172,953.122375 2530.967041,932.318787 2509.595703,911.813293 
	C2489.173340,892.218689 2468.848145,872.522217 2448.558838,852.789673 
	C2421.098633,826.083191 2393.721436,799.291809 2366.292236,772.553467 
	C2355.801025,762.326599 2345.292969,752.117126 2334.739258,741.955017 
	C2329.230225,736.650330 2323.238525,731.797791 2318.127197,726.142212 
	C2311.922852,719.276733 2313.311279,711.528076 2321.343018,706.900269 
	C2333.615967,699.828857 2346.693848,695.599854 2361.120117,695.311279 
	C2384.508301,694.843750 2405.196533,702.747437 2423.041504,716.767700 
	C2439.205566,729.467102 2454.014404,743.960938 2468.885254,758.221985 
	C2496.527344,784.731384 2523.747559,811.680725 2551.221680,838.366516 
	C2557.005127,843.983948 2563.125000,849.255066 2570.283691,855.772766 
	C2572.474365,843.654541 2573.624023,833.065735 2576.451172,822.945496 
	C2578.861572,814.316467 2576.330078,808.957947 2570.114746,803.056091 
	C2538.729980,773.254272 2507.754883,743.020630 2476.666504,712.907043 
	C2453.704834,690.665161 2430.789551,668.375122 2407.853760,646.106384 
	C2384.918213,623.837524 2361.934814,601.617371 2339.061523,579.284668 
	C2319.752197,560.431458 2300.598877,541.418091 2281.321045,522.532349 
	C2269.430176,510.882996 2257.440674,499.334015 2245.485352,487.750366 
	C2214.395020,457.627258 2183.203125,427.608185 2152.320068,397.274109 
	C2148.163330,393.191223 2144.628418,387.914886 2142.410645,382.530151 
	C2137.090332,369.613434 2138.700928,356.754852 2147.080811,345.671295 
	C2156.223877,333.578430 2168.485840,327.490875 2184.285889,329.221344 
	C2195.676514,330.468903 2204.036377,336.648712 2211.770508,344.099670 
	C2243.420166,374.591583 2274.961670,405.196289 2306.553223,435.748810 
	C2326.181396,454.731384 2345.861328,473.660400 2365.458252,492.675385 
	C2390.312012,516.791199 2415.086914,540.987915 2439.928955,565.115845 
	C2461.428711,585.997803 2482.968506,606.838623 2504.517334,627.669739 
	C2505.655273,628.769653 2507.041748,629.612244 2508.439697,630.671143 
	C2515.829346,619.502563 2522.918701,608.788086 2530.513916,597.308533 
	C2519.871826,587.154175 2509.244141,577.149780 2498.766357,566.990723 
	C2464.336182,533.608154 2429.991211,500.137756 2395.550049,466.766144 
	C2379.296631,451.017242 2362.853760,435.463623 2346.576416,419.739044 
	C2314.485107,388.738007 2282.416260,357.713593 2250.404785,326.630371 
	C2234.154785,310.851807 2218.041260,294.932587 2201.882812,279.059784 
	C2196.676514,273.945190 2190.844238,269.291473 2186.475342,263.533691 
	C2173.839600,246.881104 2175.977051,225.598923 2191.087158,211.189804 
	C2193.120605,209.250732 2195.208008,207.367981 2198.717773,204.119385 
	C2193.952637,204.119385 2191.076660,204.119385 2188.200684,204.119385 
	C2086.867676,204.119385 1985.534912,204.119354 1884.202026,204.119400 
	C1869.202148,204.119415 1854.200439,203.976166 1839.202637,204.149170 
	C1805.248047,204.540833 1780.264526,230.283951 1778.156860,261.925964 
	C1775.878540,296.132324 1769.855225,329.802307 1760.277954,362.763794 
	C1742.625122,423.517303 1714.650146,478.333435 1667.956787,522.286743 
	C1639.456299,549.114746 1606.894775,569.543213 1569.828003,582.089355 
	C1492.104980,608.396729 1414.183716,634.119324 1336.347290,660.091919 
	C1308.615723,669.345459 1280.926880,678.728943 1253.152100,687.850403 
	C1240.809326,691.903870 1234.005615,686.687866 1233.652344,673.693909 
	C1233.082520,652.728577 1240.078491,634.464172 1253.620972,618.768616 
	C1268.095947,601.992188 1286.330811,590.595459 1307.246460,583.572449 
	C1362.470581,565.029419 1417.744385,546.634766 1472.988403,528.150513 
	C1475.330933,527.366760 1477.571289,526.277893 1480.842407,524.924377 
	C1471.042236,517.301025 1461.692749,510.891815 1453.425903,503.303253 
	C1447.617065,497.971069 1442.460083,497.794159 1435.460449,500.149017 
	C1378.150879,519.429321 1320.744751,538.423462 1263.353149,557.459473 
	C1201.420776,578.001709 1139.471191,598.491882 1077.531128,619.010986 
	C1011.922546,640.745300 946.333191,662.537231 880.700256,684.197327 
	C858.704895,691.456299 835.792664,679.022522 829.698792,656.818115 
	C824.225708,636.875671 835.170593,615.921326 855.273865,608.890015 
	C876.009827,601.637451 896.927979,594.905273 917.771973,587.962036 
	C1026.414795,551.772217 1135.060547,515.591125 1243.697388,479.382965 
	C1246.651855,478.398285 1249.515747,477.142120 1252.587280,475.948242 
	C1245.870361,463.777618 1239.804077,452.785889 1233.353394,441.097595 
	C1082.765259,491.292358 932.543945,541.364807 781.678162,591.652100 
	C781.678162,596.067200 781.678162,600.001892 781.678162,603.936646 
	C781.678162,765.935852 781.678162,927.935120 781.678589,1089.934326 
	C781.678589,1092.267578 781.751831,1094.603271 781.673584,1096.933716 
	C781.446289,1103.705078 784.946350,1108.234497 790.450745,1111.494629 
	C799.259338,1116.711792 808.631714,1114.489502 816.099487,1105.719849 
	C827.298828,1092.568359 838.111633,1079.041992 849.960571,1066.498535 
	C877.895081,1036.926392 908.223999,1009.995300 941.217651,986.102600 
	C1005.148987,939.806152 1074.950317,905.539307 1150.608765,883.038269 
	C1204.406616,867.038452 1259.441772,858.704590 1315.377075,856.261963 
	C1341.294922,855.130249 1367.190918,856.965820 1393.051514,859.304504 
	C1429.251099,862.578125 1464.739014,869.467773 1499.671875,879.248962 
	C1566.959229,898.089600 1629.012451,927.968750 1686.012939,968.374390 
	C1723.658447,995.059937 1757.438477,1026.009888 1787.787354,1060.720093 
	C1821.054688,1098.768188 1848.451904,1140.649048 1870.496460,1186.166748 
	C1904.038818,1255.425659 1922.662476,1328.654175 1923.273682,1405.293579 
	C1924.589233,1570.282349 1923.674683,1735.288818 1923.686768,1900.288086 
	C1923.687500,1909.258667 1921.387939,1917.356567 1914.085815,1925.102783 
M781.671753,2177.000000 
	C781.671814,2202.994629 781.635925,2228.989014 781.687561,2254.983643 
	C781.712402,2267.464844 787.049805,2275.764404 798.267456,2279.454102 
	C802.888428,2280.973633 808.060852,2281.339111 812.983215,2281.343506 
	C926.625671,2281.442627 1040.268188,2281.420898 1153.910645,2281.415527 
	C1156.575195,2281.415283 1159.282471,2281.640625 1161.897339,2281.261475 
	C1177.603760,2278.982422 1185.090332,2261.429443 1174.944580,2249.742188 
	C1171.898315,2246.233398 1166.851807,2244.041748 1162.315918,2242.308838 
	C1100.870972,2218.832520 1042.455444,2189.526611 988.144043,2152.279541 
	C940.182983,2119.387451 896.401489,2081.720947 859.020630,2037.044800 
	C844.102234,2019.214844 830.465332,2000.312378 816.259155,1981.887207 
	C810.085205,1973.879761 802.331970,1971.307617 793.400757,1974.360352 
	C785.392212,1977.097778 781.791748,1982.826050 781.675659,1993.038696 
	C781.652893,1995.038086 781.671753,1997.037842 781.671753,1999.037476 
	C781.671631,2057.691650 781.671692,2116.345703 781.671753,2177.000000 
M1665.309814,1586.156372 
	C1705.553589,1580.459106 1743.425537,1567.626587 1779.050049,1548.145020 
	C1785.746460,1544.482910 1792.321411,1540.541748 1798.655396,1536.287231 
	C1808.447388,1529.709839 1808.306274,1513.833618 1798.705688,1507.105591 
	C1796.256714,1505.389282 1793.790283,1503.683594 1791.229492,1502.143188 
	C1744.853638,1474.248657 1694.467896,1458.647705 1640.703125,1454.270264 
	C1611.829834,1451.919678 1582.962524,1453.221069 1554.290527,1458.039429 
	C1509.499512,1465.566406 1467.965820,1481.414917 1429.072266,1504.879395 
	C1416.870972,1512.240601 1416.482544,1531.329102 1429.253418,1538.653931 
	C1448.319946,1549.589966 1467.655518,1559.813477 1488.173218,1567.686768 
	C1523.203857,1581.128906 1559.604370,1588.337646 1597.001221,1589.956299 
	C1619.238037,1590.918823 1641.527100,1590.389160 1665.309814,1586.156372 
M2599.242676,219.528503 
	C2622.404053,242.020920 2645.593506,264.484619 2668.719727,287.012939 
	C2696.863281,314.429047 2725.000000,341.852386 2753.052979,369.360901 
	C2778.256348,394.075073 2803.321289,418.930695 2828.498047,443.672150 
	C2833.953125,449.032867 2839.412598,454.432526 2845.319580,459.264923 
	C2847.238770,460.834778 2851.095947,461.830902 2853.144287,460.948456 
	C2855.241699,460.044769 2856.480713,456.633240 2857.563477,454.092651 
	C2858.165283,452.680939 2857.685303,450.806335 2857.685303,449.140320 
	C2857.686035,377.167358 2857.404297,305.192444 2857.914062,233.223083 
	C2858.020996,218.139709 2847.493408,204.068024 2829.601807,204.084442 
	C2754.629883,204.153198 2679.658203,204.118729 2604.686279,204.097305 
	C2600.940674,204.096222 2597.216309,203.978073 2595.211670,208.011993 
	C2593.034180,212.393860 2594.877686,215.671875 2599.242676,219.528503 
M1067.423584,286.302612 
	C1120.652222,268.566895 1173.880737,250.831192 1226.851685,233.181335 
	C1229.261719,223.243652 1231.471680,214.130890 1233.901367,204.111847 
	C1220.233643,204.111847 1207.930786,203.896210 1195.641846,204.218307 
	C1190.746826,204.346603 1185.669067,205.015656 1181.038208,206.541855 
	C1140.347168,219.952606 1099.741699,233.622833 1059.104004,247.195541 
	C1020.985901,259.926666 982.847656,272.597321 944.744690,285.373444 
	C934.656067,288.756195 924.364075,290.026154 914.478577,285.840942 
	C897.550720,278.674225 888.727112,266.350494 888.694824,247.814377 
	C888.662354,229.197174 900.846863,214.348007 915.788086,209.694016 
	C919.408142,208.566406 922.887207,206.986115 928.237793,204.914474 
	C925.331787,204.409378 924.495911,204.137466 923.659851,204.136963 
	C885.336304,204.114029 847.012695,204.122086 808.689148,204.109528 
	C791.194946,204.103790 781.174194,217.094666 781.400391,231.645660 
	C782.125488,278.289185 781.669922,324.951050 781.669861,371.605835 
	C781.669861,374.568146 781.669861,377.530487 781.669861,381.690460 
	C877.072754,349.859375 971.503113,318.352814 1067.423584,286.302612 
M2326.237549,288.732788 
	C2357.831055,319.236053 2389.430420,349.733337 2421.016113,380.244690 
	C2441.355469,399.892242 2461.717773,419.516144 2481.992432,439.230255 
	C2509.193848,465.679626 2536.287109,492.240021 2563.497314,518.680298 
	C2572.749756,527.671021 2582.215820,536.442078 2591.555664,545.286621 
	C2603.885498,538.552856 2615.673096,532.115234 2627.892334,525.441772 
	C2625.626221,523.021240 2624.123047,521.249695 2622.450684,519.655273 
	C2609.211182,507.031403 2595.882324,494.500214 2582.690430,481.826813 
	C2563.020752,462.930145 2543.427734,443.953217 2523.824219,424.987549 
	C2492.737549,394.912720 2461.634277,364.854462 2430.605957,334.719513 
	C2413.416992,318.025452 2396.441895,301.110870 2379.226074,284.444672 
	C2366.803467,272.418610 2353.817383,260.959167 2341.677734,248.659973 
	C2329.012695,235.828629 2312.871094,225.249710 2311.388916,204.820953 
	C2287.005371,204.820953 2263.352539,204.820953 2239.244873,204.820953 
	C2268.240723,232.927658 2296.638184,260.454132 2326.237549,288.732788 
M987.826477,438.573364 
	C1063.776001,413.282806 1139.725342,387.992249 1215.327515,362.817352 
	C1214.781006,348.579773 1214.280640,335.545105 1213.756348,321.884430 
	C1209.937378,323.012451 1207.083740,323.762665 1204.290161,324.693695 
	C1076.129883,367.406769 947.946289,410.050659 819.865540,453.001160 
	C807.749573,457.064087 796.158997,459.079956 784.036133,454.070435 
	C783.628357,453.901886 782.915466,454.471558 782.189209,454.758636 
	C782.189209,471.876862 782.189209,489.049377 782.189209,507.131683 
	C850.744263,484.324066 918.557800,461.763092 987.826477,438.573364 
M2555.892090,345.111969 
	C2569.868408,358.420990 2583.938721,371.632996 2597.802490,385.058105 
	C2632.252197,418.417603 2666.855469,451.625671 2700.811768,485.481781 
	C2708.465332,493.112885 2715.265137,497.622620 2725.666992,492.208588 
	C2726.217529,491.922089 2726.992188,492.103516 2727.635742,491.953094 
	C2737.114014,489.738190 2746.587646,487.504028 2757.313721,484.979950 
	C2754.011475,481.465790 2751.877441,478.997040 2749.540527,476.738312 
	C2721.294189,449.437683 2692.982178,422.204681 2664.762939,394.876129 
	C2648.970215,379.581787 2633.337891,364.121582 2617.594727,348.775879 
	C2606.863770,338.315948 2596.078369,327.911835 2585.295654,317.504913 
	C2567.333252,300.167908 2549.012939,283.184631 2531.482666,265.421600 
	C2515.891602,249.623611 2516.739258,225.484055 2532.488281,209.850616 
	C2533.982178,208.367691 2535.578857,206.987869 2538.142578,204.624527 
	C2495.452393,204.624527 2454.417969,204.624527 2412.003906,204.624527 
	C2415.058838,207.926849 2417.125000,210.384842 2419.419922,212.606110 
	C2438.315918,230.895462 2457.302246,249.091217 2476.167969,267.411377 
	C2502.451416,292.934479 2528.654297,318.540527 2555.892090,345.111969 
M2779.004150,2281.430664 
	C2794.994873,2281.430664 2810.997314,2281.038574 2826.973145,2281.529785 
	C2846.973877,2282.145020 2858.206055,2267.797363 2857.985596,2250.819336 
	C2857.225098,2192.197021 2857.693115,2133.558350 2857.691650,2074.926025 
	C2857.691650,2072.594238 2857.859131,2070.244141 2857.631836,2067.933838 
	C2857.068115,2062.199463 2853.376709,2059.206543 2847.635010,2059.197998 
	C2841.397217,2059.188965 2839.202148,2063.738770 2836.968994,2068.251953 
	C2823.095703,2096.287354 2809.334717,2124.378906 2795.394043,2152.380859 
	C2777.000244,2189.327881 2758.399902,2226.172119 2740.052246,2263.141846 
	C2734.296875,2274.739502 2738.261719,2281.144775 2751.022705,2281.396973 
	C2759.680908,2281.568115 2768.345215,2281.430176 2779.004150,2281.430664 
M2779.766357,1914.718140 
	C2767.831299,1938.866577 2755.880859,1963.007446 2743.966553,1987.165894 
	C2734.702393,2005.950806 2725.465088,2024.749023 2716.261230,2043.563599 
	C2714.694092,2046.767212 2712.571777,2049.718750 2715.093506,2053.737549 
	C2722.495850,2065.535645 2729.566162,2077.541992 2737.138184,2090.082520 
	C2738.516113,2088.010254 2739.756348,2086.531738 2740.578857,2084.848877 
	C2750.945801,2063.645508 2761.195312,2042.384888 2771.584717,2021.192871 
	C2799.246094,1964.769409 2827.018066,1908.400269 2854.532715,1851.905640 
	C2856.479004,1847.909302 2857.495117,1843.077271 2857.561279,1838.613403 
	C2857.872070,1817.636719 2857.699463,1796.652710 2857.699463,1775.671387 
	C2857.699463,1770.528931 2857.699463,1765.386475 2857.699463,1760.244141 
	C2857.046143,1760.099854 2856.392822,1759.955688 2855.739502,1759.811523 
	C2830.604492,1810.987305 2805.469238,1862.163086 2779.766357,1914.718140 
z"/>
<path fill="#3D5E6C" opacity="1.000000" stroke="none" 
	d="
M1914.609863,1924.578491 
	C1921.387939,1917.356567 1923.687500,1909.258667 1923.686768,1900.288086 
	C1923.674683,1735.288818 1924.589233,1570.282349 1923.273682,1405.293579 
	C1922.662476,1328.654175 1904.038818,1255.425659 1870.496460,1186.166748 
	C1848.451904,1140.649048 1821.054688,1098.768188 1787.787354,1060.720093 
	C1757.438477,1026.009888 1723.658447,995.059937 1686.012939,968.374390 
	C1629.012451,927.968750 1566.959229,898.089600 1499.671875,879.248962 
	C1464.739014,869.467773 1429.251099,862.578125 1393.051514,859.304504 
	C1367.190918,856.965820 1341.294922,855.130249 1315.377075,856.261963 
	C1259.441772,858.704590 1204.406616,867.038452 1150.608765,883.038269 
	C1074.950317,905.539307 1005.148987,939.806152 941.217651,986.102600 
	C908.223999,1009.995300 877.895081,1036.926392 849.960571,1066.498535 
	C838.111633,1079.041992 827.298828,1092.568359 816.099487,1105.719849 
	C808.631714,1114.489502 799.259338,1116.711792 790.450745,1111.494629 
	C784.946350,1108.234497 781.446289,1103.705078 781.673584,1096.933716 
	C781.751831,1094.603271 781.678589,1092.267578 781.678589,1089.934326 
	C781.678162,927.935120 781.678162,765.935852 781.678162,603.936646 
	C781.678162,600.001892 781.678162,596.067200 781.678162,591.652100 
	C932.543945,541.364807 1082.765259,491.292358 1233.353394,441.097595 
	C1239.804077,452.785889 1245.870361,463.777618 1252.587280,475.948242 
	C1249.515747,477.142120 1246.651855,478.398285 1243.697388,479.382965 
	C1135.060547,515.591125 1026.414795,551.772217 917.771973,587.962036 
	C896.927979,594.905273 876.009827,601.637451 855.273865,608.890015 
	C835.170593,615.921326 824.225708,636.875671 829.698792,656.818115 
	C835.792664,679.022522 858.704895,691.456299 880.700256,684.197327 
	C946.333191,662.537231 1011.922546,640.745300 1077.531128,619.010986 
	C1139.471191,598.491882 1201.420776,578.001709 1263.353149,557.459473 
	C1320.744751,538.423462 1378.150879,519.429321 1435.460449,500.149017 
	C1442.460083,497.794159 1447.617065,497.971069 1453.425903,503.303253 
	C1461.692749,510.891815 1471.042236,517.301025 1480.842407,524.924377 
	C1477.571289,526.277893 1475.330933,527.366760 1472.988403,528.150513 
	C1417.744385,546.634766 1362.470581,565.029419 1307.246460,583.572449 
	C1286.330811,590.595459 1268.095947,601.992188 1253.620972,618.768616 
	C1240.078491,634.464172 1233.082520,652.728577 1233.652344,673.693909 
	C1234.005615,686.687866 1240.809326,691.903870 1253.152100,687.850403 
	C1280.926880,678.728943 1308.615723,669.345459 1336.347290,660.091919 
	C1414.183716,634.119324 1492.104980,608.396729 1569.828003,582.089355 
	C1606.894775,569.543213 1639.456299,549.114746 1667.956787,522.286743 
	C1714.650146,478.333435 1742.625122,423.517303 1760.277954,362.763794 
	C1769.855225,329.802307 1775.878540,296.132324 1778.156860,261.925964 
	C1780.264526,230.283951 1805.248047,204.540833 1839.202637,204.149170 
	C1854.200439,203.976166 1869.202148,204.119415 1884.202026,204.119400 
	C1985.534912,204.119354 2086.867676,204.119385 2188.200684,204.119385 
	C2191.076660,204.119385 2193.952637,204.119385 2198.717773,204.119385 
	C2195.208008,207.367981 2193.120605,209.250732 2191.087158,211.189804 
	C2175.977051,225.598923 2173.839600,246.881104 2186.475342,263.533691 
	C2190.844238,269.291473 2196.676514,273.945190 2201.882812,279.059784 
	C2218.041260,294.932587 2234.154785,310.851807 2250.404785,326.630371 
	C2282.416260,357.713593 2314.485107,388.738007 2346.576416,419.739044 
	C2362.853760,435.463623 2379.296631,451.017242 2395.550049,466.766144 
	C2429.991211,500.137756 2464.336182,533.608154 2498.766357,566.990723 
	C2509.244141,577.149780 2519.871826,587.154175 2530.513916,597.308533 
	C2522.918701,608.788086 2515.829346,619.502563 2508.439697,630.671143 
	C2507.041748,629.612244 2505.655273,628.769653 2504.517334,627.669739 
	C2482.968506,606.838623 2461.428711,585.997803 2439.928955,565.115845 
	C2415.086914,540.987915 2390.312012,516.791199 2365.458252,492.675385 
	C2345.861328,473.660400 2326.181396,454.731384 2306.553223,435.748810 
	C2274.961670,405.196289 2243.420166,374.591583 2211.770508,344.099670 
	C2204.036377,336.648712 2195.676514,330.468903 2184.285889,329.221344 
	C2168.485840,327.490875 2156.223877,333.578430 2147.080811,345.671295 
	C2138.700928,356.754852 2137.090332,369.613434 2142.410645,382.530151 
	C2144.628418,387.914886 2148.163330,393.191223 2152.320068,397.274109 
	C2183.203125,427.608185 2214.395020,457.627258 2245.485352,487.750366 
	C2257.440674,499.334015 2269.430176,510.882996 2281.321045,522.532349 
	C2300.598877,541.418091 2319.752197,560.431458 2339.061523,579.284668 
	C2361.934814,601.617371 2384.918213,623.837524 2407.853760,646.106384 
	C2430.789551,668.375122 2453.704834,690.665161 2476.666504,712.907043 
	C2507.754883,743.020630 2538.729980,773.254272 2570.114746,803.056091 
	C2576.330078,808.957947 2578.861572,814.316467 2576.451172,822.945496 
	C2573.624023,833.065735 2572.474365,843.654541 2570.283691,855.772766 
	C2563.125000,849.255066 2557.005127,843.983948 2551.221680,838.366516 
	C2523.747559,811.680725 2496.527344,784.731384 2468.885254,758.221985 
	C2454.014404,743.960938 2439.205566,729.467102 2423.041504,716.767700 
	C2405.196533,702.747437 2384.508301,694.843750 2361.120117,695.311279 
	C2346.693848,695.599854 2333.615967,699.828857 2321.343018,706.900269 
	C2313.311279,711.528076 2311.922852,719.276733 2318.127197,726.142212 
	C2323.238525,731.797791 2329.230225,736.650330 2334.739258,741.955017 
	C2345.292969,752.117126 2355.801025,762.326599 2366.292236,772.553467 
	C2393.721436,799.291809 2421.098633,826.083191 2448.558838,852.789673 
	C2468.848145,872.522217 2489.173340,892.218689 2509.595703,911.813293 
	C2530.967041,932.318787 2552.076172,953.122375 2574.013428,973.008362 
	C2608.004639,1003.820984 2648.201416,1023.071838 2692.553467,1033.952271 
	C2714.595459,1039.359619 2737.075195,1041.693970 2759.694580,1041.964844 
	C2772.622070,1042.119629 2785.562256,1040.658813 2798.505371,1040.144409 
	C2829.127441,1038.927246 2857.596436,1064.275146 2857.624023,1098.664673 
	C2857.746826,1251.663940 2857.707520,1404.663208 2857.624512,1557.662476 
	C2857.617188,1571.141357 2854.077148,1583.916504 2848.092529,1596.005859 
	C2831.702637,1629.115356 2815.309326,1662.223389 2798.959717,1695.353027 
	C2775.244141,1743.408569 2751.553711,1791.476318 2727.875244,1839.550293 
	C2706.406738,1883.137939 2684.975342,1926.743652 2663.504395,1970.330078 
	C2662.187256,1973.004272 2660.669189,1975.579468 2658.836914,1978.951172 
	C2656.577148,1977.084595 2654.539307,1975.572876 2652.699219,1973.850342 
	C2646.382568,1967.937378 2640.281006,1961.785889 2633.806152,1956.054199 
	C2629.993164,1952.678711 2629.082520,1949.717896 2631.591553,1944.850708 
	C2639.364502,1929.772095 2646.557129,1914.395020 2654.043213,1899.167480 
	C2674.600586,1857.351440 2695.234619,1815.572876 2715.761719,1773.742065 
	C2748.308350,1707.417725 2780.800293,1641.066650 2813.297119,1574.717896 
	C2820.468018,1560.076172 2827.473389,1545.352783 2834.720215,1530.749023 
	C2840.831787,1518.433228 2842.305176,1506.044434 2836.023682,1493.367432 
	C2822.609131,1466.294434 2786.366943,1461.785400 2767.932861,1487.415161 
	C2763.903564,1493.017700 2761.241455,1499.631958 2758.159912,1505.884033 
	C2736.677979,1549.468994 2715.210693,1593.061157 2693.817139,1636.689453 
	C2662.463867,1700.628174 2631.166504,1764.594360 2599.865479,1828.558594 
	C2588.016846,1852.771118 2576.224854,1877.011230 2564.402344,1901.236450 
	C2563.252930,1903.591187 2562.069092,1905.928833 2560.601318,1908.877441 
	C2547.933594,1905.286865 2535.619629,1901.796631 2522.317627,1898.026245 
	C2523.851807,1894.419922 2525.070068,1891.128052 2526.612061,1887.995605 
	C2549.985107,1840.511475 2573.425781,1793.060425 2596.798340,1745.575928 
	C2614.729980,1709.145386 2632.582764,1672.676147 2650.479980,1636.228638 
	C2668.230713,1600.080322 2685.924805,1563.904175 2703.788574,1527.811768 
	C2709.760986,1515.745361 2713.016846,1503.587158 2707.598633,1490.429077 
	C2701.132812,1474.726685 2688.889893,1465.837036 2672.562012,1464.674194 
	C2657.770752,1463.621216 2645.514404,1470.616089 2637.085938,1483.142944 
	C2634.315674,1487.260254 2632.193359,1491.835571 2629.986572,1496.306030 
	C2607.001953,1542.865112 2584.071045,1589.450928 2561.104004,1636.018677 
	C2536.962402,1684.969360 2512.780518,1733.900146 2488.647705,1782.855103 
	C2466.132080,1828.529053 2443.630127,1874.209717 2421.175293,1919.913574 
	C2406.058350,1950.682983 2390.868164,1981.418823 2376.106445,2012.358521 
	C2373.128174,2018.601196 2369.149414,2021.080444 2362.487793,2021.647339 
	C2351.279541,2022.601196 2340.145752,2024.429565 2327.705322,2026.056885 
	C2328.798096,2022.941406 2329.370850,2020.572632 2330.416992,2018.435547 
	C2348.265137,1981.971802 2366.174805,1945.538208 2384.064209,1909.094604 
	C2391.981201,1892.966675 2400.242188,1876.995361 2407.706543,1860.660278 
	C2418.417480,1837.221680 2423.856445,1812.841187 2418.150879,1787.005249 
	C2414.447510,1770.237305 2406.008545,1756.147339 2393.367676,1744.624268 
	C2385.100342,1737.088379 2376.799072,1738.669189 2371.729004,1748.952026 
	C2345.828125,1801.485352 2320.107910,1854.108154 2294.251221,1906.663574 
	C2278.527100,1938.623413 2262.452393,1970.412354 2246.940918,2002.474487 
	C2234.484619,2028.222046 2221.940918,2053.968018 2210.745117,2080.271973 
	C2202.002686,2100.811768 2198.040527,2122.809082 2195.616943,2145.053467 
	C2192.274902,2175.730957 2194.383789,2205.998047 2200.932129,2236.083984 
	C2205.886475,2258.845947 2188.518555,2279.815430 2163.696289,2281.381348 
	C2161.372070,2281.528076 2159.030762,2281.410889 2156.697510,2281.410889 
	C2018.031494,2281.411621 1879.365601,2281.412598 1740.699585,2281.404297 
	C1737.702881,2281.404053 1734.663086,2281.601562 1731.717041,2281.184814 
	C1719.018555,2279.388184 1712.646851,2271.337402 1714.072266,2258.087158 
	C1716.662598,2234.006348 1719.557983,2209.956299 1722.510498,2185.916260 
	C1725.460449,2161.895020 1728.683228,2137.907227 1731.702026,2113.894287 
	C1736.334839,2077.042480 1740.921875,2040.184448 1745.471069,2003.322021 
	C1746.972778,1991.152954 1749.085938,1978.989380 1749.510620,1966.774414 
	C1750.083130,1950.302002 1765.688232,1934.427612 1784.938232,1935.074585 
	C1818.899780,1936.215820 1852.927124,1935.378784 1886.927002,1935.402466 
	C1897.304443,1935.409790 1906.776611,1933.135132 1914.609863,1924.578491 
z"/>
<path fill="#3E5F6D" opacity="1.000000" stroke="none" 
	d="
M781.671753,2176.000000 
	C781.671692,2116.345703 781.671631,2057.691650 781.671753,1999.037476 
	C781.671753,1997.037842 781.652893,1995.038086 781.675659,1993.038696 
	C781.791748,1982.826050 785.392212,1977.097778 793.400757,1974.360352 
	C802.331970,1971.307617 810.085205,1973.879761 816.259155,1981.887207 
	C830.465332,2000.312378 844.102234,2019.214844 859.020630,2037.044800 
	C896.401489,2081.720947 940.182983,2119.387451 988.144043,2152.279541 
	C1042.455444,2189.526611 1100.870972,2218.832520 1162.315918,2242.308838 
	C1166.851807,2244.041748 1171.898315,2246.233398 1174.944580,2249.742188 
	C1185.090332,2261.429443 1177.603760,2278.982422 1161.897339,2281.261475 
	C1159.282471,2281.640625 1156.575195,2281.415283 1153.910645,2281.415527 
	C1040.268188,2281.420898 926.625671,2281.442627 812.983215,2281.343506 
	C808.060852,2281.339111 802.888428,2280.973633 798.267456,2279.454102 
	C787.049805,2275.764404 781.712402,2267.464844 781.687561,2254.983643 
	C781.635925,2228.989014 781.671814,2202.994629 781.671753,2176.000000 
z"/>
<path fill="#3E5F6D" opacity="1.000000" stroke="none" 
	d="
M1664.432861,1586.246582 
	C1641.527100,1590.389160 1619.238037,1590.918823 1597.001221,1589.956299 
	C1559.604370,1588.337646 1523.203857,1581.128906 1488.173218,1567.686768 
	C1467.655518,1559.813477 1448.319946,1549.589966 1429.253418,1538.653931 
	C1416.482544,1531.329102 1416.870972,1512.240601 1429.072266,1504.879395 
	C1467.965820,1481.414917 1509.499512,1465.566406 1554.290527,1458.039429 
	C1582.962524,1453.221069 1611.829834,1451.919678 1640.703125,1454.270264 
	C1694.467896,1458.647705 1744.853638,1474.248657 1791.229492,1502.143188 
	C1793.790283,1503.683594 1796.256714,1505.389282 1798.705688,1507.105591 
	C1808.306274,1513.833618 1808.447388,1529.709839 1798.655396,1536.287231 
	C1792.321411,1540.541748 1785.746460,1544.482910 1779.050049,1548.145020 
	C1743.425537,1567.626587 1705.553589,1580.459106 1664.432861,1586.246582 
z"/>
<path fill="#3F5F6D" opacity="1.000000" stroke="none" 
	d="
M2598.732910,219.011047 
	C2594.877686,215.671875 2593.034180,212.393860 2595.211670,208.011993 
	C2597.216309,203.978073 2600.940674,204.096222 2604.686279,204.097305 
	C2679.658203,204.118729 2754.629883,204.153198 2829.601807,204.084442 
	C2847.493408,204.068024 2858.020996,218.139709 2857.914062,233.223083 
	C2857.404297,305.192444 2857.686035,377.167358 2857.685303,449.140320 
	C2857.685303,450.806335 2858.165283,452.680939 2857.563477,454.092651 
	C2856.480713,456.633240 2855.241699,460.044769 2853.144287,460.948456 
	C2851.095947,461.830902 2847.238770,460.834778 2845.319580,459.264923 
	C2839.412598,454.432526 2833.953125,449.032867 2828.498047,443.672150 
	C2803.321289,418.930695 2778.256348,394.075073 2753.052979,369.360901 
	C2725.000000,341.852386 2696.863281,314.429047 2668.719727,287.012939 
	C2645.593506,264.484619 2622.404053,242.020920 2598.732910,219.011047 
z"/>
<path fill="#3F5F6D" opacity="1.000000" stroke="none" 
	d="
M1066.678467,286.574402 
	C971.503113,318.352814 877.072754,349.859375 781.669861,381.690460 
	C781.669861,377.530487 781.669861,374.568146 781.669861,371.605835 
	C781.669922,324.951050 782.125488,278.289185 781.400391,231.645660 
	C781.174194,217.094666 791.194946,204.103790 808.689148,204.109528 
	C847.012695,204.122086 885.336304,204.114029 923.659851,204.136963 
	C924.495911,204.137466 925.331787,204.409378 928.237793,204.914474 
	C922.887207,206.986115 919.408142,208.566406 915.788086,209.694016 
	C900.846863,214.348007 888.662354,229.197174 888.694824,247.814377 
	C888.727112,266.350494 897.550720,278.674225 914.478577,285.840942 
	C924.364075,290.026154 934.656067,288.756195 944.744690,285.373444 
	C982.847656,272.597321 1020.985901,259.926666 1059.104004,247.195541 
	C1099.741699,233.622833 1140.347168,219.952606 1181.038208,206.541855 
	C1185.669067,205.015656 1190.746826,204.346603 1195.641846,204.218307 
	C1207.930786,203.896210 1220.233643,204.111847 1233.901367,204.111847 
	C1231.471680,214.130890 1229.261719,223.243652 1226.851685,233.181335 
	C1173.880737,250.831192 1120.652222,268.566895 1066.678467,286.574402 
z"/>
<path fill="#40606E" opacity="1.000000" stroke="none" 
	d="
M2325.636719,288.356720 
	C2296.638184,260.454132 2268.240723,232.927658 2239.244873,204.820953 
	C2263.352539,204.820953 2287.005371,204.820953 2311.388916,204.820953 
	C2312.871094,225.249710 2329.012695,235.828629 2341.677734,248.659973 
	C2353.817383,260.959167 2366.803467,272.418610 2379.226074,284.444672 
	C2396.441895,301.110870 2413.416992,318.025452 2430.605957,334.719513 
	C2461.634277,364.854462 2492.737549,394.912720 2523.824219,424.987549 
	C2543.427734,443.953217 2563.020752,462.930145 2582.690430,481.826813 
	C2595.882324,494.500214 2609.211182,507.031403 2622.450684,519.655273 
	C2624.123047,521.249695 2625.626221,523.021240 2627.892334,525.441772 
	C2615.673096,532.115234 2603.885498,538.552856 2591.555664,545.286621 
	C2582.215820,536.442078 2572.749756,527.671021 2563.497314,518.680298 
	C2536.287109,492.240021 2509.193848,465.679626 2481.992432,439.230255 
	C2461.717773,419.516144 2441.355469,399.892242 2421.016113,380.244690 
	C2389.430420,349.733337 2357.831055,319.236053 2325.636719,288.356720 
z"/>
<path fill="#3F5F6D" opacity="1.000000" stroke="none" 
	d="
M987.098877,438.887756 
	C918.557800,461.763092 850.744263,484.324066 782.189209,507.131683 
	C782.189209,489.049377 782.189209,471.876862 782.189209,454.758636 
	C782.915466,454.471558 783.628357,453.901886 784.036133,454.070435 
	C796.158997,459.079956 807.749573,457.064087 819.865540,453.001160 
	C947.946289,410.050659 1076.129883,367.406769 1204.290161,324.693695 
	C1207.083740,323.762665 1209.937378,323.012451 1213.756348,321.884430 
	C1214.280640,335.545105 1214.781006,348.579773 1215.327515,362.817352 
	C1139.725342,387.992249 1063.776001,413.282806 987.098877,438.887756 
z"/>
<path fill="#40606E" opacity="1.000000" stroke="none" 
	d="
M2555.391846,344.611511 
	C2528.654297,318.540527 2502.451416,292.934479 2476.167969,267.411377 
	C2457.302246,249.091217 2438.315918,230.895462 2419.419922,212.606110 
	C2417.125000,210.384842 2415.058838,207.926849 2412.003906,204.624527 
	C2454.417969,204.624527 2495.452393,204.624527 2538.142578,204.624527 
	C2535.578857,206.987869 2533.982178,208.367691 2532.488281,209.850616 
	C2516.739258,225.484055 2515.891602,249.623611 2531.482666,265.421600 
	C2549.012939,283.184631 2567.333252,300.167908 2585.295654,317.504913 
	C2596.078369,327.911835 2606.863770,338.315948 2617.594727,348.775879 
	C2633.337891,364.121582 2648.970215,379.581787 2664.762939,394.876129 
	C2692.982178,422.204681 2721.294189,449.437683 2749.540527,476.738312 
	C2751.877441,478.997040 2754.011475,481.465790 2757.313721,484.979950 
	C2746.587646,487.504028 2737.114014,489.738190 2727.635742,491.953094 
	C2726.992188,492.103516 2726.217529,491.922089 2725.666992,492.208588 
	C2715.265137,497.622620 2708.465332,493.112885 2700.811768,485.481781 
	C2666.855469,451.625671 2632.252197,418.417603 2597.802490,385.058105 
	C2583.938721,371.632996 2569.868408,358.420990 2555.391846,344.611511 
z"/>
<path fill="#3F606E" opacity="1.000000" stroke="none" 
	d="
M2778.005371,2281.430664 
	C2768.345215,2281.430176 2759.680908,2281.568115 2751.022705,2281.396973 
	C2738.261719,2281.144775 2734.296875,2274.739502 2740.052246,2263.141846 
	C2758.399902,2226.172119 2777.000244,2189.327881 2795.394043,2152.380859 
	C2809.334717,2124.378906 2823.095703,2096.287354 2836.968994,2068.251953 
	C2839.202148,2063.738770 2841.397217,2059.188965 2847.635010,2059.197998 
	C2853.376709,2059.206543 2857.068115,2062.199463 2857.631836,2067.933838 
	C2857.859131,2070.244141 2857.691650,2072.594238 2857.691650,2074.926025 
	C2857.693115,2133.558350 2857.225098,2192.197021 2857.985596,2250.819336 
	C2858.206055,2267.797363 2846.973877,2282.145020 2826.973145,2281.529785 
	C2810.997314,2281.038574 2794.994873,2281.430664 2778.005371,2281.430664 
z"/>
<path fill="#41616F" opacity="1.000000" stroke="none" 
	d="
M2780.050293,1914.028564 
	C2805.469238,1862.163086 2830.604492,1810.987305 2855.739502,1759.811523 
	C2856.392822,1759.955688 2857.046143,1760.099854 2857.699463,1760.244141 
	C2857.699463,1765.386475 2857.699463,1770.528931 2857.699463,1775.671387 
	C2857.699463,1796.652710 2857.872070,1817.636719 2857.561279,1838.613403 
	C2857.495117,1843.077271 2856.479004,1847.909302 2854.532715,1851.905640 
	C2827.018066,1908.400269 2799.246094,1964.769409 2771.584717,2021.192871 
	C2761.195312,2042.384888 2750.945801,2063.645508 2740.578857,2084.848877 
	C2739.756348,2086.531738 2738.516113,2088.010254 2737.138184,2090.082520 
	C2729.566162,2077.541992 2722.495850,2065.535645 2715.093506,2053.737549 
	C2712.571777,2049.718750 2714.694092,2046.767212 2716.261230,2043.563599 
	C2725.465088,2024.749023 2734.702393,2005.950806 2743.966553,1987.165894 
	C2755.880859,1963.007446 2767.831299,1938.866577 2780.050293,1914.028564 
z"/>
</svg>